<?xml version="1.0" encoding="UTF-8" standalone="no"?>
<svg width="54px" height="59px" viewBox="0 0 54 59" version="1.1" xmlns="http://www.w3.org/2000/svg" xmlns:xlink="http://www.w3.org/1999/xlink">
    <!-- Generator: Sketch 3.7 (28169) - http://www.bohemiancoding.com/sketch -->
    <title>Логотип</title>
    <desc>Created with Sketch.</desc>
    <defs>
        <polygon id="path-1" points="53.0645225 0.0111587499 0.200973904 0.0111587499 0.200973904 57.4036159 53.0645225 57.4036159 53.0645225 0.0111587499"></polygon>
    </defs>
    <g id="Page-1" stroke="none" stroke-width="1" fill="none" fill-rule="evenodd">
        <g id="Логотип">
            <g id="Group-3" transform="translate(0.196573, 0.642501)">
                <mask id="mask-2" fill="white">
                    <use xlink:href="#path-1"></use>
                </mask>
                <g id="Clip-2"></g>
                <path d="M53.0644736,15.4958544 C53.0273335,30.0758167 37.2639015,57.4310397 26.5261676,57.4035952 C15.7881316,57.3764523 0.163899834,29.9416101 0.201039996,15.3619494 C0.232443059,3.06259431 12.0744174,-0.0256651248 26.6720106,0.011430179 C41.2696038,0.0485254827 53.0922533,4.58289859 53.0644736,15.4958544" id="Fill-1" fill="#D40800" mask="url(#mask-2)"></path>
            </g>
            <path d="M49.4409245,17.7340563 C49.4092195,30.2083323 35.920094,54.2385494 26.7322824,54.2150256 C17.5450747,54.1918033 4.17793804,30.0937289 4.20964305,17.6191513 C4.23621487,7.09614854 14.368534,4.45333434 26.8588005,4.48500106 C39.349067,4.51696937 49.4644768,8.39659528 49.4409245,17.7340563 L49.4409245,17.7340563 Z" id="Stroke-4" stroke="#FFFFFF" stroke-width="1.44700003" stroke-linecap="round" stroke-linejoin="round"></path>
            <path d="M22.0522899,28.8874982 C22.3566581,28.0391316 22.6057689,26.7582881 22.7999244,25.044666 L23.3642737,19.9544665 C23.406547,19.6082437 23.482941,19.198989 23.5928517,18.7264009 L23.7954619,17.9344312 L23.9222819,17.4211287 L20.5500761,17.4211287 L19.2694954,17.4277636 C18.2301748,17.4277636 17.5220961,17.5351289 17.1461652,17.7540817 C16.7699323,17.9739392 16.3707511,18.5065433 15.9483195,19.3675766 C16.8270013,19.080465 17.9976713,18.9290679 19.4597255,18.9290679 L21.6147607,18.9290679 L21.0941945,23.4975204 C19.7317847,24.6432526 18.3228742,25.2186822 16.867161,25.2186822 C15.2849298,25.2186822 14.04934,24.6601415 13.1606937,23.5391395 C12.2720474,22.4184391 11.8278752,20.8601348 11.8278752,18.862417 C11.8278752,16.1405868 12.4625795,13.9561861 13.7316859,12.3083101 C15.0010944,10.6607358 16.689009,9.83709942 18.7960338,9.83709942 C19.8027435,9.83709942 20.6850488,10.0473061 21.4423458,10.467418 C22.1996427,10.8875299 22.5785932,11.379118 22.5785932,11.9424841 C22.5785932,12.1107701 22.5191085,12.3248975 22.4010451,12.5854694 C22.5191085,12.6105012 22.6081845,12.6231678 22.6673672,12.6231678 C22.9629787,12.6231678 23.2123915,12.4075325 23.4153036,11.9771667 L23.6559598,11.4324991 L24.5056542,9.57140054 C22.8995687,9.00592335 21.3487405,8.72303396 19.8528677,8.72303396 C16.8943368,8.72303396 14.4270826,9.77346439 12.4489916,11.8737221 C10.4715045,13.9742813 9.48260992,16.5893495 9.48260992,19.7189264 C9.48260992,21.8363746 10.0167639,23.5403459 11.085072,24.8308402 C12.153682,26.1216362 13.5619886,26.766431 15.3102938,26.766431 C17.160055,26.766431 19.0391056,26.1053504 20.9483515,24.7816814 L20.6980328,26.9751298 C20.461604,29.0204985 20.0757086,30.4258978 19.5400448,31.1910261 C19.0043811,31.9555513 18.1290207,32.3379646 16.9142656,32.3379646 C15.302745,32.3379646 14.1091266,31.5912332 13.3331086,30.0968654 L11.447415,31.5912332 C12.4357057,32.8069337 13.8171385,33.4146332 15.5908077,33.4146332 C17.5166609,33.4146332 19.1719647,32.6881081 20.5573229,31.2368675 C21.250002,30.5187868 21.7482237,29.7358648 22.0522899,28.8874982" id="Fill-8" fill="#FFFFFF"></path>
            <path d="M46.9017453,17.3570715 C45.3249491,17.3570715 43.7270163,18.1782951 42.4222795,19.8201393 C41.2805969,21.261126 40.4955203,23.7712415 40.0670497,27.3507876 L39.3936956,33.2172741 C39.2831809,33.0149087 39.1602863,32.8068131 39.0286349,32.5938921 C38.8426322,32.2458597 38.6071092,31.8969226 38.3241797,31.5500966 C38.131534,31.2837945 37.9301316,31.0126671 37.7088004,30.732492 L37.0390697,29.8789984 L36.2781493,28.9280919 C34.4712654,26.6375323 33.5684273,24.6615288 33.5684273,23.1777167 C33.5684273,23.0694466 33.5817132,22.8498907 33.6091909,22.5483029 L33.4968646,22.5483029 C33.4292272,22.5483029 33.2664748,22.6267157 33.0089093,22.6050014 C32.7782175,22.5835886 32.5306165,22.6170649 32.266106,22.6170649 C30.3677305,22.6170649 28.7861031,23.2320025 27.521224,24.4166395 C26.2566468,25.6015781 25.6243582,27.0911204 25.6243582,28.862949 C25.6243582,29.4248071 25.7058853,29.9920938 25.8686378,30.553952 L27.5163927,28.8713934 C27.1978328,28.2446939 27.0380999,27.6342801 27.0380999,27.0145171 C27.0380999,25.0339898 28.4473124,24.056242 31.2657373,24.056242 L31.7434262,24.056242 L31.0755072,30.447793 L29.5334356,44.0222615 C28.7075955,43.3225777 27.4822721,42.7899736 26.0670206,42.6120368 C23.341899,42.2691314 20.9616072,43.3464032 20.7505423,45.0211204 C20.5391756,46.6952345 22.5773552,48.3292374 25.3021748,48.6721428 C27.9617727,49.0066037 30.2871092,47.9842209 30.5938929,46.3785673 L30.5984222,46.3870117 L32.3135126,31.246096 C32.3313278,31.2213658 32.3539742,31.2059849 32.3539742,31.2059849 L32.6030851,28.8783299 L32.7972406,27.2087397 C33.3319985,28.3255194 37.6061366,33.1159406 38.1553882,34.2619744 C39.2967688,36.6424072 36.8569923,38.5436169 36.8569923,38.5436169 C37.4219455,38.3484896 39.2505701,36.9816935 39.8644396,35.6782309 C41.3778256,32.4623998 41.6625669,25.6220861 41.6625669,25.6220861 C41.9687468,23.0724625 42.399935,21.2843483 42.946469,20.2580448 C43.4933051,19.2314399 44.295291,18.7184389 45.3478975,18.7184389 C45.8234728,18.7184389 46.3712147,18.909344 46.9893115,19.2911542 L48.4975644,17.7026911 C47.9199292,17.472278 47.4926664,17.3570715 46.9017453,17.3570715" id="Fill-10" fill="#FFFFFF"></path>
        </g>
    </g>
</svg>