<?xml version="1.0" encoding="UTF-8" standalone="no"?>
<svg width="39px" height="34px" viewBox="0 0 39 34" version="1.1" xmlns="http://www.w3.org/2000/svg" xmlns:xlink="http://www.w3.org/1999/xlink">
    <!-- Generator: Sketch 3.7 (28169) - http://www.bohemiancoding.com/sketch -->
    <title>Slice 1</title>
    <desc>Created with Sketch.</desc>
    <defs></defs>
    <g id="Page-1" stroke="none" stroke-width="1" fill="none" fill-rule="evenodd">
        <path d="M34.4779762,18.2669268 L34.4779762,2.65360976 C34.4779762,1.88121951 33.841369,1.25473171 33.0561012,1.25473171 C32.2708333,1.25473171 31.6337798,1.88121951 31.6337798,2.65360976 L31.6337798,18.2669268 C29.5190476,18.8740976 27.9675595,20.7942439 27.9675595,23.0682439 C27.9675595,25.3416585 29.5190476,27.2623902 31.6337798,27.8688293 L31.6337798,32.5060976 C31.6337798,33.2783415 32.2708333,33.9048293 33.0561012,33.9048293 C33.841369,33.9048293 34.4779762,33.2783415 34.4779762,32.5060976 L34.4779762,27.8688293 C36.5933036,27.2623902 38.1441964,25.3416585 38.1441964,23.0682439 C38.1441964,20.7942439 36.5933036,18.8740976 34.4779762,18.2669268 L34.4779762,18.2669268 Z M33.0561012,25.2753659 C31.8186012,25.2753659 30.811756,24.2846341 30.811756,23.0682439 C30.811756,21.851122 31.8186012,20.861122 33.0561012,20.861122 C34.2931548,20.861122 35.2998512,21.851122 35.2998512,23.0682439 C35.2998512,24.2846341 34.2931548,25.2753659 33.0561012,25.2753659 L33.0561012,25.2753659 Z" id="Fill-2" fill="#C7C7C7"></path>
        <path d="M19.0720238,0 C16.2668155,0 13.9840774,2.24487805 13.9840774,5.00356098 C13.9840774,7.27756098 15.5349702,9.19770732 17.6502976,9.80487805 L17.6502976,32.5060976 C17.6502976,33.2783415 18.286756,33.9048293 19.0720238,33.9048293 C19.8574405,33.9048293 20.4938988,33.2783415 20.4938988,32.5060976 L20.4938988,9.80487805 C22.6092262,9.19770732 24.1607143,7.27756098 24.1607143,5.00356098 C24.1607143,2.24487805 21.877381,0 19.0720238,0 L19.0720238,0 Z M19.0720238,7.21068293 C17.8345238,7.21068293 16.8276786,6.22068293 16.8276786,5.00356098 C16.8276786,3.78717073 17.8345238,2.79702439 19.0720238,2.79702439 C20.3096726,2.79702439 21.316369,3.78717073 21.316369,5.00356098 C21.316369,6.22068293 20.3096726,7.21068293 19.0720238,7.21068293 L19.0720238,7.21068293 Z" id="Fill-3" fill="#C7C7C7"></path>
        <path d="M6.51041667,12.779122 L6.51041667,2.65360976 C6.51041667,1.88121951 5.87395833,1.25473171 5.08809524,1.25473171 C4.30267857,1.25473171 3.66622024,1.88121951 3.66622024,2.65360976 L3.66622024,12.779122 C1.5514881,13.3857073 0,15.3058537 0,17.5798537 C0,19.8538537 1.5514881,21.774 3.66622024,22.3810244 L3.66622024,32.5060976 C3.66622024,33.2783415 4.30327381,33.9048293 5.08809524,33.9048293 C5.87395833,33.9048293 6.51041667,33.2783415 6.51041667,32.5060976 L6.51041667,22.3810244 C8.62514881,21.774 10.1766369,19.8538537 10.1766369,17.5798537 C10.1766369,15.3058537 8.62514881,13.3857073 6.51041667,12.779122 L6.51041667,12.779122 Z M5.08809524,19.7869756 C3.85104167,19.7869756 2.84434524,18.7968293 2.84434524,17.5798537 C2.84434524,16.3627317 3.85104167,15.3727317 5.08809524,15.3727317 C6.32559524,15.3727317 7.33244048,16.3627317 7.33244048,17.5798537 C7.33244048,18.7968293 6.32559524,19.7869756 5.08809524,19.7869756 L5.08809524,19.7869756 Z" id="Fill-4" fill="#C7C7C7"></path>
    </g>
</svg>