<?xml version="1.0" encoding="UTF-8" standalone="no"?>
<svg width="13px" height="20px" viewBox="0 0 13 20" version="1.1" xmlns="http://www.w3.org/2000/svg" xmlns:xlink="http://www.w3.org/1999/xlink">
    <!-- Generator: Sketch 3.7 (28169) - http://www.bohemiancoding.com/sketch -->
    <title>Slice 1</title>
    <desc>Created with Sketch.</desc>
    <defs></defs>
    <g id="Page-1" stroke="none" stroke-width="1" fill="none" fill-rule="evenodd">
        <path d="M10.4387815,4.79575316 C7.5698804,2.87767949 7.17485379,0.0508820291 7.17485379,0.0323499163 L7.17485379,0 L6.31229773,0 L6.38171187,14.6039552 C5.71423069,13.9684988 4.73446714,13.5666445 3.64172273,13.5666445 C1.63033824,13.5666445 0,14.9258287 0,16.6026598 C0,18.2793283 1.63033824,19.606 3.64172273,19.606 C5.63538792,19.606 7.25402167,18.3695504 7.28214497,16.5813641 L7.33741618,16.5813641 L7.33741618,16.6073741 L7.33741618,16.6026598 L7.33741618,16.596645 L7.26068673,2.9722908 C7.72610286,3.70999894 8.53891483,4.58279643 10.0367647,5.70350157 C13.0023905,7.92182799 10.8591679,10.2282632 10.8591679,10.2282632 C12.7408276,9.31791382 13.2075442,6.64733882 10.4387815,4.79575316" id="Fill-38" fill="#252930"></path>
    </g>
</svg>