<?xml version="1.0" encoding="UTF-8" standalone="no"?>
<svg width="84px" height="130px" viewBox="0 0 84 130" version="1.1" xmlns="http://www.w3.org/2000/svg" xmlns:xlink="http://www.w3.org/1999/xlink">
    <!-- Generator: Sketch 3.7 (28169) - http://www.bohemiancoding.com/sketch -->
    <title>Slice 1</title>
    <desc>Created with Sketch.</desc>
    <defs>
        <polygon id="path-1" points="0.0503703704 0.784145325 0.0503703704 18.83952 11.0151605 18.83952 11.0151605 0.784145325 0.0503703704 0.784145325"></polygon>
    </defs>
    <g id="Page-1" stroke="none" stroke-width="1" fill="none" fill-rule="evenodd">
        <path d="M-4,1 L80,1 L80,62.1125488 L84.2722168,66 L80,70.0063477 L80,131 L-4,131 L-4,1 Z" id="Rectangle-1" fill="#FFFFFF"></path>
        <g id="audio-volume" transform="translate(51.000000, 55.000000)">
            <g id="Group-3" transform="translate(0.000000, 0.840000)">
                <mask id="mask-2" fill="white">
                    <use xlink:href="#path-1"></use>
                </mask>
                <g id="Clip-2"></g>
                <path d="M10.5039012,0.84504 C10.198321,0.72072 9.84488889,0.7896 9.60814815,1.02564 L4.64330864,6.0228 L0.820197531,6.0228 C0.367703704,6.0228 0,6.39072 0,6.84684 L0,12.77892 C0,13.23168 0.367703704,13.5996 0.820197531,13.5996 L4.62735802,13.5996 L9.61150617,18.59676 C9.76933333,18.7572 9.97920988,18.83952 10.1924444,18.83952 C10.2973827,18.83952 10.405679,18.8202 10.5072593,18.77736 C10.815358,18.64884 11.0151605,18.35064 11.0151605,18.01884 L11.0151605,1.60608 C11.0118025,1.27176 10.812,0.97272 10.5039012,0.84504 L10.5039012,0.84504 Z" id="Fill-1" fill="#D8D8D8" mask="url(#mask-2)"></path>
            </g>
            <path d="M19.0525926,10.6302 C19.0525926,7.54908 17.2233086,4.77624 14.3899753,3.5616 C13.9735802,3.38184 13.4908642,3.57504 13.3137284,3.99168 C13.1340741,4.40832 13.3271605,4.89384 13.7435556,5.07108 C15.973284,6.02616 17.409679,8.20848 17.409679,10.6302 C17.409679,13.03848 15.976642,15.21408 13.7603457,16.17168 C13.3464691,16.35228 13.1533827,16.83444 13.3305185,17.25108 C13.4648395,17.5602 13.7695802,17.74668 14.0877531,17.74668 C14.1960494,17.74668 14.3077037,17.724 14.412642,17.6778 C17.2325432,16.464 19.0525926,13.69452 19.0525926,10.6302 L19.0525926,10.6302 Z" id="Fill-4" fill="#D8D8D8"></path>
            <g id="Group-8" transform="translate(11.753086, 0.000000)" fill="#D8D8D8">
                <path d="M3.66612346,10.62684 C3.66612346,9.00228 2.69901235,7.539 1.20049383,6.90228 C0.784098765,6.7284 0.301382716,6.9216 0.124246914,7.33908 C-0.0554074074,7.75908 0.141037037,8.24124 0.557432099,8.41848 C1.44646914,8.79228 2.01985185,9.66168 2.01985185,10.62684 C2.01985185,11.58108 1.45234568,12.44796 0.577580247,12.82848 C0.15782716,13.00908 -0.0327407407,13.49124 0.147753086,13.90788 C0.282074074,14.21952 0.58345679,14.40348 0.90162963,14.40348 C1.00992593,14.40348 1.12493827,14.37996 1.22987654,14.3346 C2.70908642,13.69116 3.66612346,12.23796 3.66612346,10.62684 L3.66612346,10.62684 Z" id="Fill-5"></path>
                <path d="M4.03382716,0.30996 C3.6174321,0.1302 3.13135802,0.3234 2.95506173,0.74004 C2.7745679,1.15668 2.96765432,1.63884 3.38404938,1.81944 C6.91249383,3.33228 9.19511111,6.79056 9.19511111,10.6302 C9.19511111,14.45556 6.9225679,17.90796 3.40419753,19.42332 C2.98780247,19.60392 2.79387654,20.08608 2.97437037,20.50272 C3.10869136,20.8152 3.41007407,20.99832 3.72824691,20.99832 C3.83654321,20.99832 3.94819753,20.979 4.05649383,20.9328 C8.17511111,19.15452 10.8380247,15.1116 10.8380247,10.6302 C10.8380247,6.13452 8.16839506,2.08236 4.03382716,0.30996 L4.03382716,0.30996 Z" id="Fill-7"></path>
            </g>
        </g>
    </g>
</svg>