<?xml version="1.0" encoding="UTF-8" standalone="no"?>
<svg width="129px" height="18px" viewBox="0 0 129 18" version="1.1" xmlns="http://www.w3.org/2000/svg" xmlns:xlink="http://www.w3.org/1999/xlink">
    <!-- Generator: Sketch 3.7 (28169) - http://www.bohemiancoding.com/sketch -->
    <title>GuitarNotes</title>
    <desc>Created with Sketch.</desc>
    <defs></defs>
    <g id="Page-1" stroke="none" stroke-width="1" fill="none" fill-rule="evenodd">
        <path d="M14.2565148,7.584 L8.23251478,7.584 L8.23251478,10.44 L10.7285148,10.44 L10.7285148,13.824 C10.4405148,13.968 9.76851478,14.064 8.92851478,14.064 C5.92851478,14.064 3.84051478,12.096 3.84051478,8.76 C3.84051478,5.256 6.14451478,3.528 9.19251478,3.528 C10.9685148,3.528 12.0725148,3.84 12.9605148,4.224 L13.7285148,1.296 C12.9365148,0.912 11.3285148,0.504 9.24051478,0.504 C3.93651478,0.504 0.0245147766,3.576 0.000514776563,8.952 C-0.0234852234,11.328 0.792514777,13.44 2.28051478,14.832 C3.76851478,16.272 5.90451478,17.016 8.85651478,17.016 C10.9925148,17.016 13.1285148,16.488 14.2565148,16.104 L14.2565148,7.584 Z M28.1525148,16.848 C28.1045148,15.864 28.0565148,14.616 28.0565148,13.08 L28.0565148,5.112 L24.3845148,5.112 L24.3845148,12.096 C24.3845148,12.432 24.3365148,12.672 24.2645148,12.888 C24.0245148,13.488 23.4245148,14.16 22.4405148,14.16 C21.1205148,14.16 20.6165148,13.08 20.6165148,11.424 L20.6165148,5.112 L16.9445148,5.112 L16.9445148,12 C16.9445148,15.72 18.7205148,17.112 21.0725148,17.112 C23.1365148,17.112 24.2165148,16.008 24.7445148,15.192 L24.8165148,15.192 L24.9845148,16.848 L28.1525148,16.848 Z M34.6325148,16.848 L34.6325148,5.112 L30.9845148,5.112 L30.9845148,16.848 L34.6325148,16.848 Z M32.8085148,0 C31.6325148,0 30.8645148,0.792 30.8885148,1.848 C30.8645148,2.856 31.6325148,3.672 32.7845148,3.672 C33.9845148,3.672 34.7525148,2.856 34.7525148,1.848 C34.7285148,0.792 33.9845148,0 32.8085148,0 L32.8085148,0 Z M38.0645148,2.568 L38.0645148,5.112 L36.5045148,5.112 L36.5045148,7.8 L38.0645148,7.8 L38.0645148,12.6 C38.0645148,14.256 38.4005148,15.384 39.0725148,16.08 C39.6485148,16.68 40.6325148,17.112 41.8085148,17.112 C42.8405148,17.112 43.7045148,16.968 44.1845148,16.776 L44.1605148,14.016 C43.8965148,14.064 43.5365148,14.112 43.0805148,14.112 C41.9765148,14.112 41.6405148,13.464 41.6405148,12.048 L41.6405148,7.8 L44.2565148,7.8 L44.2565148,5.112 L41.6405148,5.112 L41.6405148,1.752 L38.0645148,2.568 Z M56.1605148,9.912 C56.1605148,7.152 54.9125148,4.848 51.0005148,4.848 C48.8645148,4.848 47.2565148,5.424 46.4405148,5.88 L47.1125148,8.232 C47.8805148,7.752 49.1525148,7.344 50.3525148,7.344 C52.1525148,7.344 52.4885148,8.232 52.4885148,8.856 L52.4885148,9.024 C48.3365148,9 45.6005148,10.464 45.6005148,13.512 C45.6005148,15.384 47.0165148,17.112 49.3925148,17.112 C50.7845148,17.112 51.9845148,16.608 52.7525148,15.672 L52.8245148,15.672 L53.0405148,16.848 L56.3285148,16.848 C56.2085148,16.2 56.1605148,15.12 56.1605148,13.992 L56.1605148,9.912 Z M52.6085148,12.576 C52.6085148,12.792 52.5845148,13.008 52.5365148,13.2 C52.2965148,13.944 51.5525148,14.544 50.6405148,14.544 C49.8245148,14.544 49.2005148,14.088 49.2005148,13.152 C49.2005148,11.736 50.6885148,11.28 52.6085148,11.304 L52.6085148,12.576 Z M59.0405148,16.848 L62.6885148,16.848 L62.6885148,10.896 C62.6885148,10.608 62.7125148,10.32 62.7605148,10.08 C63.0005148,8.952 63.9125148,8.232 65.2565148,8.232 C65.6645148,8.232 65.9765148,8.28 66.2405148,8.352 L66.2405148,4.896 C65.9765148,4.848 65.8085148,4.848 65.4725148,4.848 C64.3445148,4.848 62.9045148,5.568 62.3045148,7.272 L62.2085148,7.272 L62.0885148,5.112 L58.9445148,5.112 C58.9925148,6.12 59.0405148,7.248 59.0405148,8.976 L59.0405148,16.848 Z M71.6405148,16.848 L71.6405148,11.976 C71.6405148,9.336 71.5925148,7.056 71.4965148,4.92 L71.5685148,4.896 C72.3605148,6.792 73.4165148,8.88 74.3765148,10.608 L77.8325148,16.848 L81.6725148,16.848 L81.6725148,0.672 L78.3125148,0.672 L78.3125148,5.376 C78.3125148,7.824 78.3845148,10.008 78.6245148,12.144 L78.5525148,12.144 C77.8325148,10.32 76.8725148,8.304 75.9125148,6.6 L72.5525148,0.672 L68.2805148,0.672 L68.2805148,16.848 L71.6405148,16.848 Z M90.3125148,4.848 C86.8565148,4.848 84.0485148,7.032 84.0485148,10.992 C84.0485148,14.832 86.6885148,17.112 90.0245148,17.112 C92.9525148,17.112 96.3125148,15.36 96.3125148,10.968 C96.3125148,7.176 93.8405148,4.848 90.3125148,4.848 L90.3125148,4.848 Z M90.1925148,7.44 C91.9925148,7.44 92.5445148,9.336 92.5445148,11.016 C92.5445148,12.912 91.8005148,14.496 90.1925148,14.496 C88.5605148,14.496 87.8165148,12.888 87.8165148,11.016 C87.8165148,9.36 88.3925148,7.44 90.1925148,7.44 L90.1925148,7.44 Z M99.0725148,2.568 L99.0725148,5.112 L97.5125148,5.112 L97.5125148,7.8 L99.0725148,7.8 L99.0725148,12.6 C99.0725148,14.256 99.4085148,15.384 100.080515,16.08 C100.656515,16.68 101.640515,17.112 102.816515,17.112 C103.848515,17.112 104.712515,16.968 105.192515,16.776 L105.168515,14.016 C104.904515,14.064 104.544515,14.112 104.088515,14.112 C102.984515,14.112 102.648515,13.464 102.648515,12.048 L102.648515,7.8 L105.264515,7.8 L105.264515,5.112 L102.648515,5.112 L102.648515,1.752 L99.0725148,2.568 Z M117.744515,12.144 C117.792515,11.88 117.864515,11.328 117.864515,10.704 C117.864515,7.8 116.424515,4.848 112.632515,4.848 C108.552515,4.848 106.704515,8.136 106.704515,11.112 C106.704515,14.784 108.984515,17.112 112.968515,17.112 C114.552515,17.112 116.016515,16.848 117.216515,16.368 L116.736515,13.896 C115.752515,14.208 114.744515,14.376 113.496515,14.376 C111.792515,14.376 110.304515,13.656 110.184515,12.144 L117.744515,12.144 Z M110.160515,9.648 C110.256515,8.664 110.880515,7.272 112.416515,7.272 C114.096515,7.272 114.480515,8.76 114.480515,9.648 L110.160515,9.648 Z M119.376515,16.272 C120.264515,16.752 121.632515,17.112 123.168515,17.112 C126.528515,17.112 128.256515,15.48 128.256515,13.296 C128.232515,11.568 127.296515,10.44 125.064515,9.672 C123.624515,9.168 123.168515,8.88 123.168515,8.328 C123.168515,7.728 123.672515,7.368 124.560515,7.368 C125.568515,7.368 126.576515,7.752 127.104515,8.04 L127.752515,5.52 C127.032515,5.16 125.808515,4.848 124.440515,4.848 C121.536515,4.848 119.664515,6.504 119.664515,8.712 C119.640515,10.08 120.576515,11.4 123.000515,12.216 C124.368515,12.672 124.728515,12.96 124.728515,13.56 C124.728515,14.16 124.272515,14.544 123.168515,14.544 C122.088515,14.544 120.696515,14.064 120.024515,13.656 L119.376515,16.272 Z" id="GuitarNotes" fill="#000000"></path>
    </g>
</svg>