<?xml version="1.0" encoding="UTF-8" standalone="no"?>
<svg width="15px" height="20px" viewBox="0 0 15 20" version="1.1" xmlns="http://www.w3.org/2000/svg" xmlns:xlink="http://www.w3.org/1999/xlink">
    <!-- Generator: Sketch 3.7 (28169) - http://www.bohemiancoding.com/sketch -->
    <title>icon-2</title>
    <desc>Created with Sketch.</desc>
    <defs></defs>
    <g id="Page-1" stroke="none" stroke-width="1" fill="none" fill-rule="evenodd">
        <path d="M7.31696555,0 C3.28256077,0 0,3.24648867 0,7.23655933 C0,13.8874871 6.42425316,19.1111911 6.6994379,19.3323216 L7.36774368,19.8669231 L7.99182335,19.2821015 C8.26373208,19.0253308 14.6331121,12.9883847 14.6331121,7.23655933 C14.6331121,3.24648867 11.3505513,0 7.31696555,0 L7.31696555,0 Z M7.27192043,17.234416 C5.71663527,15.7820822 1.96396725,11.8049715 1.96396725,7.23655933 C1.96396725,4.31893154 4.36691967,1.94238519 7.31696555,1.94238519 C10.2661924,1.94238519 12.6658688,4.31893154 12.6658688,7.23655933 C12.6658688,11.1820799 8.81737756,15.6111717 7.27192043,17.234416 L7.27192043,17.234416 Z M6.40459711,12.6433238 L8.22851498,12.6433238 L8.22851498,10.9447492 L6.40459711,10.9447492 L6.40459711,12.6433238 Z M7.31696555,4.03381078 L8.25718006,4.03381078 L8.25718006,6.13171638 L7.76741675,10.2773075 L6.87224736,10.2773075 L6.37593203,6.13171638 L6.37593203,4.03381078 L7.31696555,4.03381078 Z" id="icon-2" fill="#000000"></path>
    </g>
</svg>